<?xml version="1.0" encoding="UTF-8" standalone="no"?>
<!DOCTYPE svg PUBLIC "-//W3C//DTD SVG 1.1//EN" "http://www.w3.org/Graphics/SVG/1.1/DTD/svg11.dtd">
<svg version="1.1" xmlns="http://www.w3.org/2000/svg" xmlns:xlink="http://www.w3.org/1999/xlink" preserveAspectRatio="xMidYMid meet" viewBox="0 0 640 640" width="640" height="640"><defs><path d="M460.52 61.68C447.46 82.4 342.96 248.09 329.9 268.8C326.02 269.67 321.43 273.3 317.88 278.72C304.58 298.98 198.19 461.07 184.89 481.34C182.28 485.31 180.65 489.61 180.3 493.43C179.94 497.25 180.91 500.09 183.03 501.43C185.4 502.92 204.36 514.88 206.73 516.37C208.84 517.71 211.83 517.36 215.12 515.4C218.42 513.43 221.59 510.11 224.06 506.04C236.61 485.31 337.05 319.46 349.6 298.73C353.01 293.1 354.29 287.33 353.33 283.45C365.31 263.65 461.12 105.24 473.1 85.44C474.02 83.92 475.04 83.17 475.56 82.85C476.09 82.54 477.09 82.08 477.88 82.58C479.05 83.32 478.86 85.73 477.46 87.96C476.73 89.12 470.87 98.41 470.13 99.58C465.02 107.69 464.33 116.47 468.6 119.17C477.27 124.64 492.79 115.68 503.18 99.2C503.66 98.44 507.49 92.37 507.97 91.61C523.64 66.75 525.75 39.82 512.67 31.57C499.59 23.32 476.2 36.83 460.52 61.68ZM338.45 271.85C344.56 262.15 347.96 256.77 348.64 255.69C348.72 255.75 348.79 255.82 348.87 255.87C349.39 256.2 352 257.84 356.68 260.79L346.81 277.11L338.45 271.85ZM215.7 502.14C213.33 500.65 194.38 488.69 192.01 487.2C191.98 487.18 191.9 487.13 191.92 486.94C191.94 486.75 192.04 486.6 192.07 486.55C205.37 466.29 311.76 304.19 325.05 283.93C325.22 283.68 325.46 283.55 325.59 283.63C327.22 284.66 340.22 292.86 341.85 293.88C341.98 293.97 341.96 294.24 341.81 294.5C329.25 315.23 228.82 481.07 216.26 501.81C216.23 501.86 216.14 502.01 215.97 502.11C215.81 502.21 215.73 502.16 215.7 502.14ZM477.57 104.93C477.44 104.85 477.46 104.56 477.62 104.3C478.36 103.14 484.22 93.85 484.95 92.69C491.3 82.61 492.16 71.69 486.86 68.34C484.21 66.68 480.49 67.12 476.38 69.58C472.27 72.05 468.32 76.21 465.28 81.26C458.62 92.27 425.32 147.31 365.39 246.39C360.87 243.54 358.35 241.96 357.85 241.64C357.77 241.59 357.68 241.55 357.59 241.5C368.63 223.99 456.97 83.92 468.01 66.41C478.74 49.4 494.75 40.16 503.7 45.81C512.65 51.45 511.2 69.88 500.48 86.88C500.16 87.39 498.56 89.92 495.69 94.47C486.64 103.36 480.6 106.84 477.57 104.93Z" id="g4CbngNQfj"></path><path d="M475.77 264.75C475.77 332.13 412.97 386.84 335.62 386.84C258.26 386.84 195.46 332.13 195.46 264.75C195.46 197.37 258.26 142.67 335.62 142.67C412.97 142.67 475.77 197.37 475.77 264.75Z" id="ckctxDCg5"></path><radialGradient id="gradienta2dXiUMFN" gradientUnits="userSpaceOnUse" cx="217.52" cy="333.19" dx="463.44" dy="212.38" r="273.99"><stop style="stop-color: #ffffff;stop-opacity: 1" offset="0%"></stop><stop style="stop-color: #9648b5;stop-opacity: 1" offset="100%"></stop></radialGradient><path d="M186.67 444.96C182.81 444.96 179.67 442.27 179.67 438.96C179.67 435.66 182.81 432.97 186.67 432.97C187.94 432.97 198.16 432.97 199.44 432.97C223.77 432.97 243.55 416 243.55 395.15C243.55 374.3 223.77 357.33 199.44 357.33C195.61 357.33 164.95 357.33 161.11 357.33C157.26 357.33 154.12 354.64 154.12 351.34C154.12 348.03 157.26 345.34 161.11 345.34C167.89 345.34 222.11 345.34 228.89 345.34C256.77 373.21 297.09 389.16 339.98 389.16C420.66 389.16 486.3 332.88 486.3 263.71C486.3 194.54 420.66 138.26 339.98 138.26C259.3 138.26 193.66 194.54 193.66 263.71C193.66 281.1 197.69 297.81 205.65 313.52C201.2 313.52 165.57 313.52 161.11 313.52C136.79 313.52 117 330.48 117 351.34C117 372.19 136.79 389.15 161.11 389.15C164.95 389.15 195.61 389.15 199.44 389.15C203.3 389.15 206.43 391.84 206.43 395.15C206.43 398.45 203.3 401.14 199.44 401.14C198.17 401.14 187.94 401.14 186.67 401.14C162.34 401.14 142.55 418.11 142.55 438.96C142.55 459.82 162.34 476.78 186.67 476.78C209.67 476.78 393.69 476.78 416.69 476.78C419.88 476.78 422.47 474.56 422.47 471.82C422.47 469.08 419.88 466.86 416.69 466.86C393.69 466.86 209.67 466.86 186.67 466.86C168.72 466.86 154.12 454.35 154.12 438.96C154.12 423.58 168.72 411.06 186.67 411.06C187.94 411.06 198.16 411.06 199.44 411.06C209.68 411.06 218 403.92 218 395.15C218 386.38 209.68 379.24 199.44 379.24C195.61 379.24 164.95 379.24 161.11 379.24C143.17 379.24 128.57 366.72 128.57 351.34C128.57 335.95 143.17 323.43 161.11 323.43C177.99 323.43 262.38 323.43 414.27 323.43L428.25 335.42C267.97 335.42 178.92 335.42 161.11 335.42C150.88 335.42 142.55 342.56 142.55 351.34C142.55 360.11 150.88 367.25 161.11 367.25C164.95 367.25 195.61 367.25 199.44 367.25C217.39 367.25 231.99 379.76 231.99 395.15C231.99 410.53 217.39 423.05 199.44 423.05C198.17 423.05 187.94 423.05 186.67 423.05C176.43 423.05 168.11 430.19 168.11 438.96C168.11 447.74 176.43 454.87 186.67 454.87C214.77 454.87 439.64 454.87 467.74 454.87C471.6 454.87 474.73 457.56 474.73 460.87C474.73 464.17 471.6 466.86 467.74 466.86C464.95 466.86 442.62 466.86 439.82 466.86C436.63 466.86 434.04 469.08 434.04 471.82C434.04 474.56 436.63 476.78 439.82 476.78C442.62 476.78 464.95 476.78 467.74 476.78C477.98 476.78 486.3 469.64 486.3 460.87C486.3 452.1 477.98 444.96 467.74 444.96C411.53 444.96 214.77 444.96 186.67 444.96ZM399.71 367.25C381.7 374.92 361.42 379.24 339.98 379.24C318.9 379.24 298.49 375.05 280.14 367.25C304.05 367.25 387.75 367.25 399.71 367.25ZM255.81 173.56C259.49 171.03 263.33 168.65 267.31 166.46C285.92 182.41 434.8 310.06 453.41 326.01C450.85 329.43 448.08 332.71 445.13 335.87C407.27 303.41 293.68 206.02 255.81 173.56ZM260.24 191.38L270.12 199.85C231.41 233.05 209.9 251.49 205.59 255.18C206.19 248.23 207.5 241.46 209.47 234.9C216.24 229.1 233.16 214.59 260.24 191.38ZM278.3 206.87L288.19 215.35C239.72 256.9 212.79 279.99 207.41 284.6C206.35 279.6 205.68 274.52 205.4 269.38C215.12 261.04 239.42 240.21 278.3 206.87ZM215.72 308.46C213.7 304.36 211.97 300.19 210.53 295.95C216.26 291.05 244.87 266.52 296.37 222.36L306.26 230.84C257.97 272.24 227.79 298.11 215.72 308.46ZM291.27 257.71L337.61 257.71L351.59 269.7L277.29 269.7L291.27 257.71ZM302.84 247.8L314.44 237.85L326.04 247.8L302.84 247.8ZM265.72 279.62L363.16 279.62L377.15 291.61L251.74 291.61L265.72 279.62ZM324.86 184.82C325.99 185.79 327.47 186.27 328.95 186.27C330.43 186.27 331.91 185.79 333.04 184.82C335.3 182.89 335.3 179.75 333.04 177.81C330.09 175.28 306.46 155.02 303.5 152.48C308.8 151.2 314.23 150.2 319.77 149.48C335.12 162.63 457.88 267.88 473.22 281.03C472.38 285.78 471.21 290.44 469.71 294.98C457.68 284.67 361.44 202.15 349.41 191.84C347.15 189.9 343.49 189.9 341.23 191.84C338.97 193.77 338.97 196.91 341.23 198.85C353.66 209.51 453.17 294.83 465.61 305.49C463.8 309.49 461.73 313.38 459.43 317.14C441.25 301.56 295.83 176.89 277.65 161.3C282.05 159.33 286.58 157.56 291.24 156C291.24 156 321.5 181.94 324.86 184.82ZM375.52 152.26C421.31 163.01 457.44 193.98 469.97 233.24C451.08 217.04 384.97 160.36 375.52 152.26ZM473.86 250.6C474.43 254.91 474.74 259.28 474.74 263.71C474.74 265.22 474.69 266.71 474.62 268.21C460.63 256.22 348.72 160.27 334.73 148.27C336.47 148.22 338.22 148.18 339.98 148.18C345.15 148.18 350.25 148.44 355.27 148.93C355.27 148.93 462 240.44 473.86 250.6ZM252.06 184.36C232.33 201.27 221.38 210.67 219.19 212.55C226.23 200.36 235.71 189.39 247.08 180.1C247.74 180.67 249.4 182.09 252.06 184.36ZM250.55 313.52L226.18 313.52L240.17 301.53L388.72 301.53L402.7 313.52L250.55 313.52ZM435.25 345.34C430.16 349.7 424.67 353.71 418.84 357.33C403.05 357.33 276.78 357.33 261 357.33C255.22 353.74 249.75 349.73 244.64 345.34C245.88 345.34 252.11 345.34 263.32 345.34C355.02 345.34 412.32 345.34 435.25 345.34Z" id="a4rNDTssG"></path><linearGradient id="gradientbaaFkNwTMw" gradientUnits="userSpaceOnUse" x1="240.46" y1="457.66" x2="379.26" y2="185.74"><stop style="stop-color: #c66ce5;stop-opacity: 1" offset="0%"></stop><stop style="stop-color: #410659;stop-opacity: 1" offset="100%"></stop></linearGradient></defs><g><g><g><use xlink:href="#g4CbngNQfj" opacity="1" fill="#000000" fill-opacity="0.5"></use><g><use xlink:href="#g4CbngNQfj" opacity="1" fill-opacity="0" stroke="#000000" stroke-width="1" stroke-opacity="0"></use></g></g><g><use xlink:href="#ckctxDCg5" opacity="1" fill="url(#gradienta2dXiUMFN)"></use></g><g><use xlink:href="#a4rNDTssG" opacity="0.91" fill="url(#gradientbaaFkNwTMw)"></use><g><use xlink:href="#a4rNDTssG" opacity="0.91" fill-opacity="0" stroke="#9e4d4d" stroke-width="0" stroke-opacity="0"></use></g></g></g></g></svg>