<svg xmlns="http://www.w3.org/2000/svg">
  <symbol id="icon-search" viewBox="0 0 18 18">
    <path fill="currentColor" d="M12.8 11.4c.9-1.2 1.4-2.7 1.4-4.3C14.2 3.2 11 0 7.1 0S0 3.2 0 7.1c0 3.9 3.2 7.1 7.1 7.1 1.6 0 3.1-.5 4.3-1.4l5.2 5.2 1.4-1.4-5.2-5.2zM2 7.1C2 4.3 4.3 2 7.1 2s5.1 2.3 5.1 5.1-2.3 5.1-5.1 5.1S2 9.9 2 7.1z"/>
  </symbol>
  <symbol id="icon-view-default" viewBox="0 0 18 18">
    <g fill="currentColor">
      <path d="M8 11H0V0h8v11zM18 5h-8V0h8v5zM8 18H0v-5h8v5zM18 18h-8V7h8v11z"/></g></symbol>
  <symbol id="icon-view-alt" viewBox="0 0 18 18">
    <g fill="currentColor">
      <path d="M8 8H0V0h8v8zM18 8h-8V0h8v8zM8 18H0v-8h8v8zM18 18h-8v-8h8v8z"/></g></symbol>
  <symbol id="icon-view-full" viewBox="0 0 18 18">
    <g fill="currentColor"><path d="M18 8H0V0h18v8zM18 18H0v-8h18v8z"/></g></symbol>
  <symbol id="icon-facebook" viewBox="0 0 9 19">
    <path fill="currentColor" d="M6.7 3.6H9V0H6.3c-3.3.1-4 2.1-4 4.1V6H0v3.5h2.2V19h3.4V9.5h2.8L8.9 6H5.6V4.9c0-.7.4-1.3 1.1-1.3z"/></symbol>
  <symbol id="icon-twitter" viewBox="0 0 17.9 15">
    <path fill="currentColor" d="M17.9 1.8c-.3.2-1.2.5-2 .6.5-.3 1.3-1.3 1.5-2.1-.5.3-1.7.8-2.3.8C14.4.5 13.5 0 12.4 0c-2 0-3.7 1.7-3.7 3.8 0 .3 0 .6.1.8-2.8-.1-6-1.5-7.8-4-1.1 2-.2 4.2 1.1 5-.4 0-1.2-.1-1.6-.4 0 1.3.6 3.1 2.9 3.7-.5.4-1.3.3-1.6.3.1 1.1 1.6 2.6 3.3 2.6-.6.7-2.6 2-5.1 1.6 1.7 1 3.7 1.6 5.8 1.6 6 0 10.6-5 10.3-11.1v-.1c.6-.4 1.3-1.1 1.8-2z"/></symbol>
  <symbol id="icon-pinterest" viewBox="0 0 18 18">
    <path fill="currentColor" d="M2.3 0h13.4C17 0 18 .9 18 2.3v13.4c0 1.4-1 2.3-2.3 2.3H2.3C1 18 0 17.1 0 15.7V2.3C0 .9 1 0 2.3 0zm10.8 2c-.4 0-.8.4-.8.8v1.9c0 .4.4.8.8.8h2c.4 0 .8-.4.8-.8V2.8c.1-.4-.3-.8-.8-.8h-2zM16 7.6h-1.6c.2.5.2 1 .2 1.5 0 3-2.5 5.4-5.6 5.4-3.1 0-5.6-2.4-5.6-5.4 0-.5.1-1.1.2-1.5H2v7.6c0 .4.3.7.7.7h12.5c.4 0 .7-.3.7-.7l.1-7.6zM9 5.5C7 5.5 5.4 7 5.4 9c0 1.9 1.6 3.5 3.6 3.5s3.6-1.6 3.6-3.5c0-2-1.6-3.5-3.6-3.5z"/></symbol>
  <symbol id="icon-tumblr" viewBox="0 0 11 19">
    <path fill="currentColor" d="M8.6 15.9c-1.6 0-2.3-1.3-2.3-2.2V7.8h4.1v-3h-4V.1S4.7 0 3.5 0C3.5 4.1 0 4.9 0 4.9v2.8h2.3v7C2.3 17.1 4.4 19 7 19s4-1.1 4-1.1v-3.1c0 .1-.8 1.1-2.4 1.1z"/></symbol>
  <symbol id="icon-menu" viewBox="0 0 274.5 224.5">
    <g fill="currentColor"><path d="M274 53.8H.5V.5H274v53.3zM274 138.9H.5V85.6H274v53.3zM274 224H.5v-53.3H274V224z"/></g></symbol>
  <symbol id="bar" viewBox="0 0 274.5 54.3">
    <path fill="currentColor" d="M274 53.8H.5V.5H274v53.3z"/></symbol>
  <symbol id="arrow" viewBox="0 0 38 14">
    <path fill="currentColor" d="M31 0l-1.4 1.4L34.2 6H0v2h34.2l-4.6 4.6L31 14l7-7-7-7z"/></symbol>
  <symbol id="refresh" viewBox="0 0 19 16">
    <path fill="currentColor" d="M9.4 6.2l5.9 4.4L19 4.4l-1.7-1L15.7 6c-.9-3.5-4-6-7.7-6-4.4 0-8 3.6-8 8s3.6 8 8 8c2.1 0 4.1-.8 5.6-2.3l-1.4-1.4C11.1 13.3 9.6 14 8 14c-3.3 0-6-2.7-6-6s2.7-6 6-6c3 0 5.4 2.2 5.9 5l-3.3-2.4-1.2 1.6z"/></symbol>
  <symbol id="icon-email" viewBox="0 0 384 384"><g fill="currentColor">
    <path d="M383.888,63.256c-0.04-0.792-0.192-1.552-0.352-2.336c-0.16-0.792-0.304-1.568-0.576-2.32
			c-0.088-0.24-0.08-0.488-0.176-0.72c-0.2-0.472-0.536-0.848-0.776-1.296c-0.384-0.728-0.768-1.432-1.256-2.088
			c-0.464-0.624-0.992-1.16-1.544-1.704c-0.544-0.544-1.08-1.072-1.704-1.544c-0.656-0.488-1.36-0.872-2.088-1.256
			c-0.448-0.24-0.816-0.584-1.296-0.776c-0.232-0.096-0.488-0.096-0.72-0.184c-0.744-0.272-1.504-0.416-2.288-0.576
			c-0.8-0.16-1.576-0.32-2.384-0.36c-0.248,0-0.48-0.096-0.728-0.096H16c-0.256,0-0.496,0.104-0.752,0.112
			c-0.792,0.04-1.552,0.192-2.336,0.352c-0.792,0.16-1.568,0.304-2.32,0.576c-0.24,0.088-0.488,0.08-0.72,0.176
			c-0.472,0.2-0.848,0.536-1.296,0.776c-0.728,0.384-1.432,0.768-2.088,1.256c-0.624,0.464-1.16,0.992-1.704,1.544
			c-0.544,0.544-1.072,1.08-1.544,1.704c-0.488,0.656-0.872,1.36-1.256,2.088C1.744,57.032,1.4,57.4,1.208,57.88
			c-0.096,0.232-0.096,0.48-0.176,0.72c-0.272,0.752-0.416,1.528-0.576,2.32c-0.152,0.784-0.312,1.544-0.352,2.336
			C0.096,63.512,0,63.744,0,64v256c0,1.048,0.112,2.096,0.312,3.136c0.096,0.472,0.272,0.912,0.408,1.368
			c0.16,0.544,0.288,1.088,0.504,1.616c0.224,0.536,0.528,1.024,0.808,1.536c0.224,0.408,0.4,0.832,0.664,1.224
			c1.168,1.752,2.68,3.264,4.432,4.432c0.392,0.264,0.824,0.448,1.24,0.672c0.504,0.272,0.984,0.576,1.52,0.8
			c0.528,0.216,1.08,0.344,1.624,0.504c0.456,0.136,0.896,0.312,1.368,0.408C13.904,335.888,14.952,336,16,336h352
			c1.048,0,2.096-0.112,3.136-0.312c0.472-0.096,0.912-0.272,1.368-0.408c0.544-0.16,1.096-0.288,1.624-0.504
			c0.528-0.224,1.016-0.52,1.52-0.8c0.416-0.224,0.84-0.408,1.24-0.672c1.752-1.176,3.264-2.68,4.432-4.432
			c0.264-0.392,0.44-0.816,0.664-1.224c0.28-0.504,0.584-0.992,0.808-1.536c0.216-0.528,0.344-1.072,0.504-1.616
			c0.136-0.456,0.312-0.896,0.408-1.368c0.184-1.032,0.296-2.08,0.296-3.128V64C384,63.744,383.904,63.512,383.888,63.256z
			 M329.368,80L208.064,201.312c-8.856,8.848-23.264,8.848-32.128,0L54.632,80H329.368z M32,102.632L121.376,192L32,281.376V102.632
			z M54.624,304L144,214.624l9.312,9.312c1.336,1.336,2.72,2.584,4.152,3.752c20.032,16.336,49.04,16.336,69.072,0
			c1.432-1.168,2.816-2.416,4.152-3.752l9.312-9.312L329.376,304H54.624z M352,281.376L262.624,192L352,102.632V281.376z"/>
  </g></symbol>
</svg>
